<svg xmlns="http://www.w3.org/2000/svg" viewBox="0 0 212.75 68.79"><defs><style>.cls-1{fill:#01cb70;}</style></defs><g id="Layer_2" data-name="Layer 2"><g id="Layer_1-2" data-name="Layer 1"><path class="cls-1" d="M15.53,57.12a3.43,3.43,0,0,1-3.43-3.44V7.87L5,11.49a3.44,3.44,0,0,1-3.1-6.14L11.28.58A5.28,5.28,0,0,1,19,5.31V53.68A3.43,3.43,0,0,1,15.53,57.12Z"/><path class="cls-1" d="M66.83,34.39A18.88,18.88,0,1,0,60,49v2.61c0,6-5.07,10.32-12,10.32h-.81c-3.48,0-6,0-9.86-1.56a3.42,3.42,0,0,0-4.47,1.88,3.46,3.46,0,0,0,1.88,4.49,27.7,27.7,0,0,0,11.69,2.07h1.57c10.77,0,18.89-7.39,18.89-17.2V36.12a3.68,3.68,0,0,0,0-.58C66.8,35.16,66.83,34.78,66.83,34.39ZM48,46.44a12,12,0,1,1,12-12A12,12,0,0,1,48,46.44Z"/><path class="cls-1" d="M78.84,53.31a3.43,3.43,0,0,1-3.43-3.44V27.52c0-6.53,5.26-12,11.49-12h5.65a3.44,3.44,0,0,1,0,6.88H86.9c-2.43,0-4.64,2.46-4.64,5.16V49.87A3.43,3.43,0,0,1,78.84,53.31Z"/><path class="cls-1" d="M133.69,34.39A18.88,18.88,0,1,0,126.84,49v.89a3.43,3.43,0,1,0,6.85,0V34.4h0Zm-18.85,12a12,12,0,1,1,12-12A12,12,0,0,1,114.84,46.44Z"/><path class="cls-1" d="M166.27,53.31a3.43,3.43,0,0,1-3.43-3.44V29.24a6.86,6.86,0,1,0-13.72,0V49.87a3.43,3.43,0,1,1-6.86,0V29.24a13.72,13.72,0,1,1,27.43,0V49.87A3.43,3.43,0,0,1,166.27,53.31Z"/><path class="cls-1" d="M186.84,53.31a3.43,3.43,0,0,1-3.43-3.44V29.24a6.86,6.86,0,1,0-13.72,0V49.87a3.43,3.43,0,1,1-6.85,0V29.24a13.72,13.72,0,1,1,27.43,0V49.87A3.44,3.44,0,0,1,186.84,53.31Z"/><path class="cls-1" d="M199,68.79H72.34a3.44,3.44,0,0,1,0-6.88H199A6.87,6.87,0,0,0,205.89,55V13.76A6.88,6.88,0,0,0,199,6.88H37.63a3.44,3.44,0,0,1,0-6.88H199a13.76,13.76,0,0,1,13.72,13.76V55A13.75,13.75,0,0,1,199,68.79Z"/></g></g></svg>