<svg width="125" height="125" viewBox="0 0 125 125" fill="none" xmlns="http://www.w3.org/2000/svg">
<path d="M43.8392 89C41.541 89 39.6785 87.1127 39.6785 84.7855V28.6459L31.0414 33.0785C28.9896 34.1312 26.4875 33.3003 25.4501 31.2231C24.4114 29.1459 25.2317 26.6104 27.2811 25.5577L38.681 19.7096C40.6856 18.6778 43.0263 18.777 44.9398 19.9694C46.8558 21.1618 48 23.2329 48 25.5099V84.7855C48 87.1127 46.1374 89 43.8392 89Z" fill="#00CB70"/>
<path d="M77.857 78.424C69.6503 78.424 62.9741 71.7254 62.9741 63.4915C62.9741 55.2563 69.6503 48.5577 77.857 48.5577C86.0637 48.5577 92.7399 55.2563 92.7399 63.4915C92.7399 71.7254 86.0637 78.424 77.857 78.424ZM101.244 63.4915C101.244 50.552 90.753 40.0273 77.857 40.0273C64.961 40.0273 54.4685 50.552 54.4685 63.4915C54.4685 76.4296 64.961 86.9543 77.857 86.9543C83.5063 86.9543 88.693 84.9352 92.7399 81.5766V84.8224C92.7399 92.2353 86.4606 97.6154 77.8061 97.6154L76.8016 97.6179C72.493 97.6117 69.3688 97.6378 64.5802 95.6782C62.4061 94.7865 59.9244 95.8345 59.0363 98.0148C58.1496 100.196 59.1926 102.687 61.3668 103.576C67.274 105.996 71.5206 106.151 75.8627 106.151C76.1814 106.151 76.5027 106.15 76.8239 106.15L77.8061 106.147C91.1685 106.147 101.244 96.9792 101.244 84.8224V65.6271C101.244 65.3828 101.212 65.1459 101.172 64.9128C101.201 64.4402 101.244 63.9714 101.244 63.4915Z" fill="#00CB70"/>
<circle cx="62.5" cy="62.5" r="57.5" stroke="#00CB70" stroke-width="10"/>
</svg>
